<svg width="153" height="86" viewBox="0 0 153 86" fill="none" xmlns="http://www.w3.org/2000/svg">
<g filter="url(#filter0_d_7_3)">
<rect x="4.5" y="43.5" width="98" height="34" fill="white" stroke="#B7F6FF"/>
<path d="M8.88 71V50.008H11.536V58.808H21.296V50.008H23.984V71H21.296V61.112H11.536V71H8.88ZM34.043 71.384C32.4003 71.384 31.195 70.872 30.427 69.848C29.659 68.8027 29.275 67.288 29.275 65.304V55.448H31.931V64.952C31.931 66.4027 32.155 67.4587 32.603 68.12C33.0723 68.7813 33.819 69.112 34.843 69.112C35.6537 69.112 36.3683 68.9093 36.987 68.504C37.627 68.0773 38.3097 67.4053 39.035 66.488V55.448H41.659V71H39.483L39.259 68.568H39.163C38.4377 69.4213 37.6697 70.104 36.859 70.616C36.0483 71.128 35.1097 71.384 34.043 71.384ZM46.9053 71V55.448H49.0813L49.3053 57.688H49.4013C50.1479 56.9413 50.9373 56.3227 51.7693 55.832C52.6013 55.32 53.5506 55.064 54.6173 55.064C56.2599 55.064 57.4546 55.5867 58.2013 56.632C58.9693 57.656 59.3533 59.16 59.3533 61.144V71H56.7293V61.496C56.7293 60.0453 56.4946 58.9893 56.0253 58.328C55.5559 57.6667 54.8093 57.336 53.7853 57.336C52.9959 57.336 52.2813 57.5387 51.6413 57.944C51.0226 58.3493 50.3186 58.9467 49.5293 59.736V71H46.9053ZM69.3013 71.384C67.6373 71.384 66.4746 70.904 65.8133 69.944C65.1733 68.984 64.8533 67.736 64.8533 66.2V57.592H62.5493V55.608L64.9813 55.448L65.3013 51.096H67.5093V55.448H71.7013V57.592H67.5093V66.232C67.5093 67.192 67.6799 67.9387 68.0213 68.472C68.3839 68.984 69.0133 69.24 69.9093 69.24C70.1866 69.24 70.4853 69.1973 70.8053 69.112C71.1253 69.0053 71.4133 68.9093 71.6693 68.824L72.1813 70.808C71.7546 70.9573 71.2853 71.0853 70.7733 71.192C70.2826 71.32 69.7919 71.384 69.3013 71.384ZM81.0843 71.384C79.6976 71.384 78.4389 71.064 77.3083 70.424C76.1776 69.7627 75.2816 68.824 74.6203 67.608C73.9589 66.392 73.6283 64.9413 73.6283 63.256C73.6283 61.5493 73.9589 60.088 74.6203 58.872C75.3029 57.656 76.1776 56.7173 77.2443 56.056C78.3109 55.3947 79.4309 55.064 80.6042 55.064C82.5883 55.064 84.1136 55.7253 85.1803 57.048C86.2683 58.3707 86.8123 60.1413 86.8123 62.36C86.8123 62.6373 86.8016 62.9147 86.7803 63.192C86.7803 63.448 86.7589 63.672 86.7163 63.864H76.2203C76.3269 65.5067 76.8389 66.8187 77.7563 67.8C78.6949 68.7813 79.9109 69.272 81.4043 69.272C82.1509 69.272 82.8336 69.1653 83.4523 68.952C84.0923 68.7173 84.7003 68.4187 85.2763 68.056L86.2043 69.784C85.5429 70.2107 84.7856 70.584 83.9323 70.904C83.1003 71.224 82.1509 71.384 81.0843 71.384ZM76.1883 61.976H84.5083C84.5083 60.3973 84.1669 59.2027 83.4843 58.392C82.8229 57.56 81.8843 57.144 80.6683 57.144C79.5803 57.144 78.5989 57.5707 77.7243 58.424C76.8709 59.256 76.3589 60.44 76.1883 61.976ZM90.6553 71V55.448H92.8313L93.0553 58.264H93.1513C93.6846 57.2827 94.3353 56.504 95.1033 55.928C95.8713 55.352 96.6926 55.064 97.5673 55.064C98.1859 55.064 98.7406 55.1707 99.2313 55.384L98.7193 57.688C98.4633 57.6027 98.2286 57.5387 98.0153 57.496C97.8019 57.4533 97.5353 57.432 97.2153 57.432C96.5539 57.432 95.8606 57.6987 95.1353 58.232C94.4313 58.7653 93.8126 59.6933 93.2793 61.016V71H90.6553Z" fill="#B7F6FF"/>
<path d="M8.88 71H7.88V72H8.88V71ZM8.88 50.008V49.008H7.88V50.008H8.88ZM11.536 50.008H12.536V49.008H11.536V50.008ZM11.536 58.808H10.536V59.808H11.536V58.808ZM21.296 58.808V59.808H22.296V58.808H21.296ZM21.296 50.008V49.008H20.296V50.008H21.296ZM23.984 50.008H24.984V49.008H23.984V50.008ZM23.984 71V72H24.984V71H23.984ZM21.296 71H20.296V72H21.296V71ZM21.296 61.112H22.296V60.112H21.296V61.112ZM11.536 61.112V60.112H10.536V61.112H11.536ZM11.536 71V72H12.536V71H11.536ZM9.88 71V50.008H7.88V71H9.88ZM8.88 51.008H11.536V49.008H8.88V51.008ZM10.536 50.008V58.808H12.536V50.008H10.536ZM11.536 59.808H21.296V57.808H11.536V59.808ZM22.296 58.808V50.008H20.296V58.808H22.296ZM21.296 51.008H23.984V49.008H21.296V51.008ZM22.984 50.008V71H24.984V50.008H22.984ZM23.984 70H21.296V72H23.984V70ZM22.296 71V61.112H20.296V71H22.296ZM21.296 60.112H11.536V62.112H21.296V60.112ZM10.536 61.112V71H12.536V61.112H10.536ZM11.536 70H8.88V72H11.536V70ZM30.427 69.848L29.6211 70.4401L29.627 70.448L30.427 69.848ZM29.275 55.448V54.448H28.275V55.448H29.275ZM31.931 55.448H32.931V54.448H31.931V55.448ZM32.603 68.12L31.7751 68.6808L31.7812 68.6899L31.7875 68.6987L32.603 68.12ZM36.987 68.504L37.535 69.3405L37.5417 69.3361L36.987 68.504ZM39.035 66.488L39.8194 67.1082L40.035 66.8356V66.488H39.035ZM39.035 55.448V54.448H38.035V55.448H39.035ZM41.659 55.448H42.659V54.448H41.659V55.448ZM41.659 71V72H42.659V71H41.659ZM39.483 71L38.4872 71.0917L38.5709 72H39.483V71ZM39.259 68.568L40.2548 68.4763L40.1711 67.568H39.259V68.568ZM39.163 68.568V67.568H38.7006L38.4011 67.9204L39.163 68.568ZM36.859 70.616L36.325 69.7705L36.859 70.616ZM34.043 70.384C32.6171 70.384 31.7542 69.9509 31.227 69.248L29.627 70.448C30.6358 71.7931 32.1836 72.384 34.043 72.384V70.384ZM31.2329 69.2559C30.6419 68.4516 30.275 67.1811 30.275 65.304H28.275C28.275 67.3949 28.6761 69.1538 29.6211 70.4401L31.2329 69.2559ZM30.275 65.304V55.448H28.275V65.304H30.275ZM29.275 56.448H31.931V54.448H29.275V56.448ZM30.931 55.448V64.952H32.931V55.448H30.931ZM30.931 64.952C30.931 66.4612 31.1557 67.7665 31.7751 68.6808L33.4309 67.5592C33.1543 67.1508 32.931 66.3441 32.931 64.952H30.931ZM31.7875 68.6987C32.4933 69.6933 33.59 70.112 34.843 70.112V68.112C34.048 68.112 33.6513 67.8693 33.4185 67.5413L31.7875 68.6987ZM34.843 70.112C35.8289 70.112 36.7379 69.8627 37.535 69.3405L36.439 67.6675C35.9987 67.956 35.4784 68.112 34.843 68.112V70.112ZM37.5417 69.3361C38.3018 68.8293 39.0592 68.0696 39.8194 67.1082L38.2506 65.8678C37.5601 66.741 36.9522 67.3253 36.4323 67.6719L37.5417 69.3361ZM40.035 66.488V55.448H38.035V66.488H40.035ZM39.035 56.448H41.659V54.448H39.035V56.448ZM40.659 55.448V71H42.659V55.448H40.659ZM41.659 70H39.483V72H41.659V70ZM40.4788 70.9083L40.2548 68.4763L38.2632 68.6597L38.4872 71.0917L40.4788 70.9083ZM39.259 67.568H39.163V69.568H39.259V67.568ZM38.4011 67.9204C37.7305 68.7092 37.0371 69.3207 36.325 69.7705L37.393 71.4615C38.3022 70.8873 39.1448 70.1334 39.9249 69.2156L38.4011 67.9204ZM36.325 69.7705C35.6918 70.1705 34.9426 70.384 34.043 70.384V72.384C35.2767 72.384 36.4049 72.0855 37.393 71.4615L36.325 69.7705ZM46.9053 71H45.9053V72H46.9053V71ZM46.9053 55.448V54.448H45.9053V55.448H46.9053ZM49.0812 55.448L50.0763 55.3485L49.9862 54.448H49.0812V55.448ZM49.3053 57.688L48.3102 57.7875L48.4003 58.688H49.3053V57.688ZM49.4012 57.688V58.688H49.8155L50.1084 58.3951L49.4012 57.688ZM51.7692 55.832L52.2772 56.6934L52.2853 56.6886L52.2933 56.6837L51.7692 55.832ZM58.2013 56.632L57.3875 57.2132L57.3943 57.2227L57.4013 57.232L58.2013 56.632ZM59.3532 71V72H60.3532V71H59.3532ZM56.7293 71H55.7293V72H56.7293V71ZM56.0252 58.328L55.2097 58.9067L56.0252 58.328ZM51.6413 57.944L51.1062 57.0992L51.0997 57.1033L51.0932 57.1075L51.6413 57.944ZM49.5293 59.736L48.8221 59.0289L48.5293 59.3218V59.736H49.5293ZM49.5293 71V72H50.5293V71H49.5293ZM47.9053 71V55.448H45.9053V71H47.9053ZM46.9053 56.448H49.0812V54.448H46.9053V56.448ZM48.0862 55.5475L48.3102 57.7875L50.3003 57.5885L50.0763 55.3485L48.0862 55.5475ZM49.3053 58.688H49.4012V56.688H49.3053V58.688ZM50.1084 58.3951C50.8009 57.7026 51.5242 57.1374 52.2772 56.6934L51.2613 54.9706C50.3503 55.5079 49.4949 56.1801 48.6941 56.9809L50.1084 58.3951ZM52.2933 56.6837C52.9534 56.2775 53.718 56.064 54.6172 56.064V54.064C53.3831 54.064 52.2491 54.3625 51.2452 54.9803L52.2933 56.6837ZM54.6172 56.064C56.0369 56.064 56.88 56.5027 57.3875 57.2132L59.015 56.0508C58.0292 54.6707 56.4829 54.064 54.6172 54.064V56.064ZM57.4013 57.232C57.9855 58.011 58.3532 59.2647 58.3532 61.144H60.3532C60.3532 59.0553 59.953 57.301 59.0013 56.032L57.4013 57.232ZM58.3532 61.144V71H60.3532V61.144H58.3532ZM59.3532 70H56.7293V72H59.3532V70ZM57.7293 71V61.496H55.7293V71H57.7293ZM57.7293 61.496C57.7293 59.9814 57.4926 58.6677 56.8408 57.7493L55.2097 58.9067C55.4966 59.3109 55.7293 60.1093 55.7293 61.496H57.7293ZM56.8408 57.7493C56.1349 56.7547 55.0382 56.336 53.7853 56.336V58.336C54.5803 58.336 54.9769 58.5787 55.2097 58.9067L56.8408 57.7493ZM53.7853 56.336C52.8148 56.336 51.9132 56.5881 51.1062 57.0992L52.1763 58.7888C52.6493 58.4892 53.177 58.336 53.7853 58.336V56.336ZM51.0932 57.1075C50.3962 57.5642 49.6381 58.2129 48.8221 59.0289L50.2364 60.4431C50.9991 59.6804 51.649 59.1344 52.1893 58.7805L51.0932 57.1075ZM48.5293 59.736V71H50.5293V59.736H48.5293ZM49.5293 70H46.9053V72H49.5293V70ZM65.8133 69.944L64.9812 70.4987L64.9854 70.505L64.9897 70.5113L65.8133 69.944ZM64.8532 57.592H65.8532V56.592H64.8532V57.592ZM62.5493 57.592H61.5493V58.592H62.5493V57.592ZM62.5493 55.608L62.4836 54.6102L61.5493 54.6716V55.608H62.5493ZM64.9813 55.448L65.0469 56.4458L65.9148 56.3887L65.9786 55.5213L64.9813 55.448ZM65.3013 51.096V50.096H64.3721L64.3039 51.0227L65.3013 51.096ZM67.5093 51.096H68.5093V50.096H67.5093V51.096ZM67.5093 55.448H66.5093V56.448H67.5093V55.448ZM71.7012 55.448H72.7012V54.448H71.7012V55.448ZM71.7012 57.592V58.592H72.7012V57.592H71.7012ZM67.5093 57.592V56.592H66.5093V57.592H67.5093ZM68.0213 68.472L67.179 69.0111L67.1916 69.0308L67.2052 69.05L68.0213 68.472ZM70.8053 69.112L71.0629 70.0782L71.0925 70.0704L71.1215 70.0607L70.8053 69.112ZM71.6693 68.824L72.6375 68.5741L72.3697 67.5364L71.353 67.8753L71.6693 68.824ZM72.1813 70.808L72.5116 71.7519L73.3792 71.4482L73.1495 70.5581L72.1813 70.808ZM70.7733 71.192L70.5693 70.213L70.5449 70.2181L70.5208 70.2244L70.7733 71.192ZM69.3013 70.384C67.8153 70.384 67.0397 69.9616 66.6368 69.3767L64.9897 70.5113C65.9095 71.8464 67.4592 72.384 69.3013 72.384V70.384ZM66.6453 69.3893C66.1457 68.6399 65.8532 67.6027 65.8532 66.2H63.8532C63.8532 67.8693 64.2008 69.3281 64.9812 70.4987L66.6453 69.3893ZM65.8532 66.2V57.592H63.8532V66.2H65.8532ZM64.8532 56.592H62.5493V58.592H64.8532V56.592ZM63.5493 57.592V55.608H61.5493V57.592H63.5493ZM62.6149 56.6058L65.0469 56.4458L64.9156 54.4502L62.4836 54.6102L62.6149 56.6058ZM65.9786 55.5213L66.2986 51.1693L64.3039 51.0227L63.9839 55.3747L65.9786 55.5213ZM65.3013 52.096H67.5093V50.096H65.3013V52.096ZM66.5093 51.096V55.448H68.5093V51.096H66.5093ZM67.5093 56.448H71.7012V54.448H67.5093V56.448ZM70.7012 55.448V57.592H72.7012V55.448H70.7012ZM71.7012 56.592H67.5093V58.592H71.7012V56.592ZM66.5093 57.592V66.232H68.5093V57.592H66.5093ZM66.5093 66.232C66.5093 67.2913 66.6944 68.2539 67.179 69.0111L68.8635 67.9329C68.6654 67.6235 68.5093 67.0927 68.5093 66.232H66.5093ZM67.2052 69.05C67.8272 69.9281 68.8372 70.24 69.9092 70.24V68.24C69.1893 68.24 68.9406 68.0399 68.8373 67.894L67.2052 69.05ZM69.9092 70.24C70.2885 70.24 70.6746 70.1818 71.0629 70.0782L70.5476 68.1458C70.2959 68.2129 70.0847 68.24 69.9092 68.24V70.24ZM71.1215 70.0607C71.4415 69.954 71.7295 69.858 71.9855 69.7727L71.353 67.8753C71.097 67.9606 70.809 68.0567 70.489 68.1633L71.1215 70.0607ZM70.701 69.0739L71.213 71.0579L73.1495 70.5581L72.6375 68.5741L70.701 69.0739ZM71.8509 69.8641C71.4714 69.997 71.0449 70.1139 70.5693 70.213L70.9772 72.171C71.5256 72.0567 72.0378 71.9177 72.5116 71.7519L71.8509 69.8641ZM70.5208 70.2244C70.1098 70.3316 69.7039 70.384 69.3013 70.384V72.384C69.8799 72.384 70.4554 72.3084 71.0257 72.1596L70.5208 70.2244ZM77.3083 70.424L76.8034 71.2872L76.8095 71.2908L76.8157 71.2943L77.3083 70.424ZM74.6202 67.608L75.4987 67.1302L74.6202 67.608ZM74.6202 58.872L73.7482 58.3824L73.7418 58.3942L74.6202 58.872ZM77.2442 56.056L77.7712 56.9059L77.2442 56.056ZM85.1803 57.048L84.4018 57.6758L84.408 57.6833L85.1803 57.048ZM86.7803 63.192L85.7832 63.1153L85.7803 63.1536V63.192H86.7803ZM86.7162 63.864V64.864H87.5184L87.6924 64.0809L86.7162 63.864ZM76.2203 63.864V62.864H75.1532L75.2224 63.9288L76.2203 63.864ZM77.7562 67.8L77.0257 68.4829L77.0336 68.4912L77.7562 67.8ZM83.4522 68.952L83.7782 69.8974L83.7874 69.8942L83.7965 69.8909L83.4522 68.952ZM85.2763 68.056L86.1572 67.5829L85.6502 66.6388L84.7434 67.2098L85.2763 68.056ZM86.2043 69.784L86.7464 70.6243L87.5219 70.124L87.0852 69.3109L86.2043 69.784ZM83.9323 70.904L83.5811 69.9676L83.5733 69.9707L83.9323 70.904ZM76.1882 61.976L75.1944 61.8656L75.071 62.976H76.1882V61.976ZM84.5082 61.976V62.976H85.5082V61.976H84.5082ZM83.4843 58.392L82.7014 59.0142L82.7102 59.0253L82.7193 59.0361L83.4843 58.392ZM77.7243 58.424L78.4223 59.14L78.4226 59.1398L77.7243 58.424ZM81.0843 70.384C79.8582 70.384 78.7711 70.103 77.8008 69.5537L76.8157 71.2943C78.1067 72.025 79.5369 72.384 81.0843 72.384V70.384ZM77.8131 69.5608C76.8489 68.9968 76.0781 68.1956 75.4987 67.1302L73.7418 68.0858C74.485 69.4524 75.5063 70.5285 76.8034 71.2872L77.8131 69.5608ZM75.4987 67.1302C74.9327 66.0895 74.6283 64.8104 74.6283 63.256H72.6283C72.6283 65.0722 72.9851 66.6945 73.7418 68.0858L75.4987 67.1302ZM74.6283 63.256C74.6283 61.6778 74.9337 60.3888 75.4987 59.3498L73.7418 58.3942C72.9842 59.7872 72.6283 61.4208 72.6283 63.256H74.6283ZM75.4922 59.3615C76.1016 58.2762 76.8636 57.4686 77.7712 56.9059L76.7173 55.2061C75.4916 55.9661 74.5043 57.0358 73.7483 58.3825L75.4922 59.3615ZM77.7712 56.9059C78.6911 56.3356 79.6302 56.064 80.6042 56.064V54.064C79.2317 54.064 77.9307 54.4538 76.7173 55.2061L77.7712 56.9059ZM80.6042 56.064C82.3426 56.064 83.558 56.6294 84.4018 57.6758L85.9587 56.4202C84.6692 54.8213 82.8339 54.064 80.6042 54.064V56.064ZM84.408 57.6833C85.3099 58.7798 85.8122 60.3036 85.8122 62.36H87.8122C87.8122 59.9791 87.2266 57.9615 85.9525 56.4127L84.408 57.6833ZM85.8122 62.36C85.8122 62.6117 85.8026 62.8634 85.7832 63.1153L87.7773 63.2687C87.8006 62.9659 87.8122 62.663 87.8122 62.36H85.8122ZM85.7803 63.192C85.7803 63.3956 85.763 63.5439 85.7401 63.6471L87.6924 64.0809C87.7548 63.8001 87.7803 63.5004 87.7803 63.192H85.7803ZM86.7162 62.864H76.2203V64.864H86.7162V62.864ZM75.2224 63.9288C75.3405 65.7485 75.9173 67.2971 77.0257 68.4829L78.4868 67.1171C77.7606 66.3403 77.3133 65.2649 77.2181 63.7992L75.2224 63.9288ZM77.0336 68.4912C78.1808 69.6905 79.6681 70.272 81.4043 70.272V68.272C80.1537 68.272 79.2091 67.8721 78.4789 67.1088L77.0336 68.4912ZM81.4043 70.272C82.2465 70.272 83.0411 70.1516 83.7782 69.8974L83.1263 68.0066C82.6261 68.1791 82.0554 68.272 81.4043 68.272V70.272ZM83.7965 69.8909C84.5023 69.6321 85.1736 69.3024 85.8091 68.9022L84.7434 67.2098C84.227 67.535 83.6822 67.8026 83.108 68.0131L83.7965 69.8909ZM84.3953 68.5291L85.3233 70.2571L87.0852 69.3109L86.1572 67.5829L84.3953 68.5291ZM85.6621 68.9437C85.0694 69.3261 84.3778 69.6689 83.5811 69.9677L84.2834 71.8403C85.1934 71.4991 86.0164 71.0952 86.7464 70.6243L85.6621 68.9437ZM83.5733 69.9707C82.8759 70.2389 82.0517 70.384 81.0843 70.384V72.384C82.2501 72.384 83.3246 72.2091 84.2912 71.8373L83.5733 69.9707ZM76.1882 62.976H84.5082V60.976H76.1882V62.976ZM85.5082 61.976C85.5082 60.2732 85.1427 58.8089 84.2492 57.7479L82.7193 59.0361C83.1912 59.5964 83.5082 60.5215 83.5082 61.976H85.5082ZM84.2671 57.7698C83.3872 56.6628 82.1395 56.144 80.6683 56.144V58.144C81.629 58.144 82.2587 58.4572 82.7014 59.0142L84.2671 57.7698ZM80.6683 56.144C79.2863 56.144 78.0623 56.6971 77.0259 57.7082L78.4226 59.1398C79.1355 58.4443 79.8742 58.144 80.6683 58.144V56.144ZM77.0262 57.708C75.9633 58.7443 75.3829 60.1688 75.1944 61.8656L77.1821 62.0864C77.3349 60.7112 77.7785 59.7677 78.4223 59.14L77.0262 57.708ZM90.6553 71H89.6553V72H90.6553V71ZM90.6553 55.448V54.448H89.6553V55.448H90.6553ZM92.8313 55.448L93.8281 55.3687L93.7549 54.448H92.8313V55.448ZM93.0553 58.264L92.0584 58.3433L92.1316 59.264H93.0553V58.264ZM93.1513 58.264V59.264H93.7459L94.0299 58.7415L93.1513 58.264ZM95.1032 55.928L95.7032 56.728V56.728L95.1032 55.928ZM99.2312 55.384L100.207 55.6009L100.386 54.7958L99.63 54.4669L99.2312 55.384ZM98.7193 57.688L98.403 58.6367L99.4549 58.9873L99.6954 57.9049L98.7193 57.688ZM98.0153 57.496L97.8191 58.4766H97.8191L98.0153 57.496ZM95.1353 58.232L94.5429 57.4263L94.5371 57.4306L94.5314 57.4349L95.1353 58.232ZM93.2793 61.016L92.3518 60.642L92.2793 60.822V61.016H93.2793ZM93.2793 71V72H94.2793V71H93.2793ZM91.6553 71V55.448H89.6553V71H91.6553ZM90.6553 56.448H92.8313V54.448H90.6553V56.448ZM91.8344 55.5273L92.0584 58.3433L94.0521 58.1847L93.8281 55.3687L91.8344 55.5273ZM93.0553 59.264H93.1513V57.264H93.0553V59.264ZM94.0299 58.7415C94.5057 57.8659 95.0675 57.2048 95.7032 56.728L94.5033 55.128C93.603 55.8032 92.8634 56.6994 92.2726 57.7865L94.0299 58.7415ZM95.7032 56.728C96.316 56.2684 96.9302 56.064 97.5673 56.064V54.064C96.4549 54.064 95.4265 54.4356 94.5033 55.128L95.7032 56.728ZM97.5673 56.064C98.07 56.064 98.4858 56.1503 98.8325 56.3011L99.63 54.4669C98.9954 54.191 98.3018 54.064 97.5673 54.064V56.064ZM98.2551 55.1671L97.7431 57.4711L99.6954 57.9049L100.207 55.6009L98.2551 55.1671ZM99.0355 56.7393C98.7491 56.6438 98.4736 56.5679 98.2114 56.5154L97.8191 58.4766C97.9835 58.5095 98.1774 58.5615 98.403 58.6367L99.0355 56.7393ZM98.2114 56.5154C97.911 56.4554 97.5734 56.432 97.2152 56.432V58.432C97.4971 58.432 97.6928 58.4513 97.8191 58.4766L98.2114 56.5154ZM97.2152 56.432C96.2758 56.432 95.3789 56.8116 94.5429 57.4263L95.7276 59.0377C96.3423 58.5857 96.832 58.432 97.2152 58.432V56.432ZM94.5314 57.4349C93.6202 58.1252 92.9153 59.2446 92.3518 60.642L94.2067 61.39C94.7099 60.1421 95.2423 59.4054 95.7391 59.0291L94.5314 57.4349ZM92.2793 61.016V71H94.2793V61.016H92.2793ZM93.2793 70H90.6553V72H93.2793V70Z" fill="#B9B9B9"/>
</g>
<g filter="url(#filter1_d_7_3)">
<path d="M78.3461 16.2647C80.0791 7.99695 89.1135 3.55199 96.721 7.22426L137.486 26.9023C144.289 30.1862 146.87 38.5569 143.098 45.1015L134.853 59.405C133.841 61.1607 131.713 61.9342 129.81 61.2379L129.645 61.1773C127.289 60.3155 124.727 61.7976 124.301 64.2697C123.646 68.0664 118.542 68.8568 116.769 65.4361L112.548 57.2922C111.587 55.4378 109.859 54.1001 107.823 53.6345L84.6642 48.3388C77.755 46.7589 73.3846 39.9358 74.8386 32.9991L78.3461 16.2647Z" fill="white" stroke="#B7F6FF"/>
<path d="M88.7446 34.1565C89.9266 34.5889 91.0693 34.6322 92.1727 34.2862C93.3034 33.9275 94.3328 33.2251 95.2607 32.1789C96.1959 31.1126 96.9714 29.738 97.5871 28.0551C98.4813 25.6109 98.6577 23.4833 98.1162 21.6724C97.5748 19.8614 96.4225 18.6335 94.6595 17.9885C92.8964 17.3435 91.2238 17.538 89.6415 18.572C88.0593 19.606 86.8211 21.3451 85.9269 23.7894C85.3112 25.4723 85.0166 27.0228 85.043 28.4408C85.0767 29.8388 85.4097 31.0397 86.0421 32.0434C86.6817 33.027 87.5826 33.7314 88.7446 34.1565ZM92.3443 43.0379C90.5212 42.3709 89.1634 41.3631 88.2711 40.0144C87.3715 38.6858 86.8767 37.2441 86.7868 35.6892C85.4376 34.9684 84.3834 33.9694 83.624 32.6921C82.8646 31.4148 82.4519 29.9349 82.3859 28.2525C82.32 26.5701 82.6388 24.7672 83.3424 22.8439C84.112 20.7402 85.1223 19.0654 86.3732 17.8193C87.6515 16.5605 89.0683 15.7613 90.6237 15.4217C92.2064 15.0693 93.8192 15.1937 95.462 15.7947C97.1249 16.403 98.4372 17.3488 99.3989 18.632C100.368 19.8951 100.934 21.4199 101.099 23.2064C101.27 24.9729 100.971 26.908 100.202 29.0116C99.5126 30.8949 98.6138 32.4515 97.5051 33.6814C96.3963 34.9114 95.1562 35.7866 93.7845 36.307C92.4202 36.8074 90.9929 36.9213 89.5025 36.6486C89.6481 37.6787 90.061 38.568 90.7413 39.3166C91.4415 40.0725 92.3225 40.6447 93.3844 41.0332C93.8251 41.1945 94.2268 41.3073 94.5894 41.3718C94.9446 41.4564 95.2672 41.5062 95.5569 41.5213L95.3341 43.6206C94.9896 43.6308 94.5523 43.5844 94.0221 43.4813C93.4846 43.3983 92.9253 43.2505 92.3443 43.0379ZM104.697 42.3436C103.154 41.7792 102.198 40.8843 101.829 39.6587C101.467 38.4132 101.626 36.8588 102.308 34.9955L105.694 25.7395L108.188 26.652L104.923 35.5775C104.425 36.9398 104.272 38.0085 104.466 38.7835C104.679 39.5658 105.267 40.1329 106.229 40.4847C106.99 40.7632 107.731 40.8185 108.451 40.6504C109.199 40.4695 110.071 40.073 111.067 39.4607L114.86 29.0927L117.324 29.9943L111.981 44.5996L109.938 43.852L110.563 41.491L110.473 41.4581C109.498 42.0103 108.542 42.3875 107.605 42.5898C106.668 42.7921 105.699 42.71 104.697 42.3436ZM116.908 46.402L122.251 31.7967L124.715 32.6982L119.372 47.3035L116.908 46.402ZM124.613 29.2533C124.132 29.0774 123.783 28.7905 123.565 28.3928C123.374 27.9823 123.37 27.5266 123.554 27.0258C123.73 26.5449 124.023 26.2092 124.433 26.0187C124.864 25.8354 125.319 25.8317 125.8 26.0076C126.281 26.1835 126.617 26.4767 126.807 26.8872C127.018 27.305 127.035 27.7543 126.859 28.2351C126.676 28.736 126.369 29.0781 125.939 29.2613C125.536 29.4319 125.094 29.4292 124.613 29.2533ZM122.771 48.5469L123.255 47.2246L135.071 38.7696L128.219 36.2629L128.956 34.2495L138.933 37.8995L138.449 39.2218L126.633 47.6768L134.567 50.5793L133.83 52.5928L122.771 48.5469Z" fill="#B7F6FF"/>
<path d="M92.1727 34.2862L92.4719 35.2404L92.4751 35.2394L92.1727 34.2862ZM95.2607 32.1789L96.0088 32.8424L96.0125 32.8383L95.2607 32.1789ZM98.1162 21.6724L99.0743 21.3859L99.0743 21.3859L98.1162 21.6724ZM89.6415 18.572L89.0945 17.7349L89.0945 17.7349L89.6415 18.572ZM85.043 28.4408L84.0431 28.4594L84.0433 28.4649L85.043 28.4408ZM86.0421 32.0434L85.196 32.5764L85.1998 32.5825L85.2037 32.5885L86.0421 32.0434ZM88.2711 40.0144L89.1052 39.4626L89.0992 39.4538L88.2711 40.0144ZM86.7868 35.6892L87.7851 35.6314L87.7528 35.0714L87.258 34.8071L86.7868 35.6892ZM83.624 32.6921L84.4836 32.1811L83.624 32.6921ZM82.3859 28.2525L81.3867 28.2917L81.3867 28.2917L82.3859 28.2525ZM86.3732 17.8193L85.6715 17.1067L85.6675 17.1108L86.3732 17.8193ZM90.6237 15.4217L90.837 16.3987L90.841 16.3978L90.6237 15.4217ZM99.3989 18.632L98.5986 19.2317L98.6055 19.2406L99.3989 18.632ZM101.099 23.2064L100.103 23.298L100.103 23.3031L101.099 23.2064ZM97.5051 33.6814L98.2478 34.351L97.5051 33.6814ZM93.7845 36.307L94.1289 37.2459L94.1393 37.2419L93.7845 36.307ZM89.5025 36.6486L89.6824 35.6649L88.3182 35.4154L88.5123 36.7886L89.5025 36.6486ZM90.7413 39.3166L90.0011 39.9891L90.0076 39.9962L90.7413 39.3166ZM94.5894 41.3718L94.8209 40.399L94.7929 40.3923L94.7645 40.3873L94.5894 41.3718ZM95.5569 41.5213L96.5513 41.6269L96.6627 40.5778L95.6091 40.5227L95.5569 41.5213ZM95.3341 43.6206L95.3639 44.6201L96.2364 44.5941L96.3285 43.7261L95.3341 43.6206ZM94.0221 43.4813L94.213 42.4997L94.194 42.496L94.1748 42.4931L94.0221 43.4813ZM88.401 35.0956C89.7704 35.5966 91.1395 35.6582 92.4719 35.2404L91.8735 33.332C90.9991 33.6062 90.0829 33.5813 89.0881 33.2174L88.401 35.0956ZM92.4751 35.2394C93.8064 34.8171 94.9828 33.9992 96.0088 32.8424L94.5126 31.5153C93.6827 32.4509 92.8004 33.038 91.8703 33.333L92.4751 35.2394ZM96.0125 32.8383C97.0474 31.6583 97.8788 30.1682 98.5262 28.3987L96.648 27.7115C96.064 29.3078 95.3444 30.5669 94.5089 31.5194L96.0125 32.8383ZM98.5262 28.3987C99.4671 25.8269 99.697 23.4686 99.0743 21.3859L97.1581 21.9588C97.6183 23.498 97.4955 25.3949 96.648 27.7115L98.5262 28.3987ZM99.0743 21.3859C98.4432 19.2751 97.0648 17.8036 95.003 17.0494L94.3159 18.9276C95.7802 19.4633 96.7063 20.4478 97.1581 21.9588L99.0743 21.3859ZM95.003 17.0494C92.9412 16.2951 90.9387 16.5297 89.0945 17.7349L90.1886 19.4091C91.5088 18.5463 92.8516 18.3919 94.3159 18.9276L95.003 17.0494ZM89.0945 17.7349C87.2748 18.9241 85.9286 20.874 84.9878 23.4458L86.866 24.1329C87.7135 21.8163 88.8438 20.2879 90.1886 19.4091L89.0945 17.7349ZM84.9878 23.4458C84.3404 25.2153 84.0139 26.8902 84.0431 28.4594L86.0428 28.4222C86.0192 27.1554 86.282 25.7292 86.866 24.1329L84.9878 23.4458ZM84.0433 28.4649C84.0806 30.0108 84.4515 31.3947 85.196 32.5764L86.8882 31.5103C86.368 30.6847 86.0729 29.6669 86.0427 28.4167L84.0433 28.4649ZM85.2037 32.5885C85.968 33.7639 87.0476 34.6005 88.401 35.0956L89.0881 33.2174C88.1175 32.8623 87.3954 32.2902 86.8804 31.4982L85.2037 32.5885ZM92.6879 42.0988C91.0241 41.4901 89.8574 40.5997 89.1051 39.4627L87.4372 40.5662C88.4695 42.1265 90.0182 43.2517 92.0008 43.977L92.6879 42.0988ZM89.0992 39.4538C88.2974 38.2697 87.8643 37.0008 87.7851 35.6314L85.7885 35.7469C85.8891 37.4873 86.4456 39.102 87.4431 40.5751L89.0992 39.4538ZM87.258 34.8071C86.0647 34.1697 85.1469 33.2969 84.4836 32.1811L82.7644 33.2031C83.6198 34.642 84.8105 35.7672 86.3156 36.5712L87.258 34.8071ZM84.4836 32.1811C83.8201 31.0651 83.4455 29.7517 83.3852 28.2133L81.3867 28.2917C81.4583 30.1181 81.9091 31.7645 82.7644 33.2031L84.4836 32.1811ZM83.3852 28.2133C83.3253 26.6861 83.6133 25.0141 84.2815 23.1874L82.4033 22.5003C81.6643 24.5203 81.3146 26.4541 81.3867 28.2917L83.3852 28.2133ZM84.2815 23.1874C85.014 21.1853 85.9554 19.6469 87.0789 18.5278L85.6675 17.1108C84.2891 18.4838 83.21 20.2951 82.4033 22.5003L84.2815 23.1874ZM87.0748 18.5318C88.2361 17.3882 89.4888 16.693 90.837 16.3986L90.4103 14.4447C88.6478 14.8296 87.0668 15.7328 85.6715 17.1068L87.0748 18.5318ZM90.841 16.3978C92.2223 16.0903 93.6404 16.1931 95.1185 16.7338L95.8056 14.8556C93.998 14.1942 92.1905 14.0484 90.4064 14.4456L90.841 16.3978ZM95.1185 16.7338C96.6192 17.2828 97.7651 18.1194 98.5987 19.2317L100.199 18.0323C99.1093 16.5782 97.6307 15.5232 95.8056 14.8556L95.1185 16.7338ZM98.6055 19.2406C99.4454 20.3356 99.9537 21.675 100.103 23.298L102.095 23.1149C101.915 21.1649 101.29 19.4547 100.192 18.0233L98.6055 19.2406ZM100.103 23.3031C100.257 24.8867 99.9937 26.6693 99.2625 28.668L101.141 29.3552C101.949 27.1467 102.283 25.0592 102.094 23.1098L100.103 23.3031ZM99.2625 28.668C98.6085 30.4558 97.7693 31.8948 96.7623 33.0119L98.2478 34.351C99.4583 33.0082 100.417 31.334 101.141 29.3552L99.2625 28.668ZM96.7623 33.0119C95.7462 34.1391 94.6346 34.9149 93.4298 35.372L94.1393 37.2419C95.6777 36.6582 97.0465 35.6836 98.2478 34.351L96.7623 33.0119ZM93.4402 35.3681C92.2508 35.8044 91.005 35.9069 89.6824 35.6649L89.3225 37.6323C90.9807 37.9356 92.5896 37.8104 94.1289 37.2458L93.4402 35.3681ZM88.5123 36.7886C88.6852 38.0112 89.1821 39.0877 90.0011 39.9891L91.4814 38.6441C90.94 38.0484 90.6111 37.3462 90.4926 36.5086L88.5123 36.7886ZM90.0076 39.9962C90.8257 40.8793 91.845 41.5348 93.0408 41.9723L93.728 40.0941C92.8001 39.7546 92.0573 39.2658 91.4749 38.637L90.0076 39.9962ZM93.0408 41.9723C93.5222 42.1484 93.9812 42.2793 94.4143 42.3564L94.7645 40.3873C94.4724 40.3353 94.1281 40.2405 93.728 40.0941L93.0408 41.9723ZM94.3579 42.3447C94.7577 42.4398 95.1414 42.501 95.5047 42.52L95.6091 40.5227C95.3929 40.5114 95.1316 40.4729 94.8209 40.399L94.3579 42.3447ZM94.5625 41.4158L94.3397 43.515L96.3285 43.7261L96.5513 41.6269L94.5625 41.4158ZM95.3043 42.621C95.0632 42.6282 94.7065 42.5957 94.213 42.4997L93.8312 44.4629C94.3981 44.5732 94.9161 44.6335 95.3639 44.6201L95.3043 42.621ZM94.1748 42.4931C93.7105 42.4213 93.2153 42.2917 92.6879 42.0988L92.0008 43.977C92.6353 44.2092 93.2586 44.3752 93.8694 44.4696L94.1748 42.4931ZM101.829 39.6587L100.868 39.9379L100.871 39.9473L101.829 39.6587ZM105.694 25.7395L106.038 24.8004L105.099 24.4568L104.755 25.3959L105.694 25.7395ZM108.188 26.652L109.128 26.9956L109.471 26.0565L108.532 25.7129L108.188 26.652ZM104.466 38.7835L103.496 39.0258L103.498 39.0363L103.501 39.0469L104.466 38.7835ZM108.451 40.6504L108.678 41.6242L108.686 41.6223L108.451 40.6504ZM111.067 39.4607L111.591 40.3127L111.887 40.1307L112.006 39.8043L111.067 39.4607ZM114.86 29.0927L115.204 28.1536L114.264 27.81L113.921 28.7492L114.86 29.0927ZM117.324 29.9943L118.263 30.3378L118.607 29.3987L117.668 29.0551L117.324 29.9943ZM111.981 44.5996L111.638 45.5387L112.577 45.8823L112.92 44.9431L111.981 44.5996ZM109.938 43.852L108.971 43.596L108.737 44.4777L109.594 44.7911L109.938 43.852ZM110.563 41.491L111.529 41.747L111.763 40.8653L110.906 40.5519L110.563 41.491ZM110.473 41.4581L110.816 40.5189L110.382 40.3601L109.98 40.5881L110.473 41.4581ZM107.605 42.5898L107.394 41.6123L107.605 42.5898ZM105.04 41.4044C103.701 40.9145 103.04 40.2114 102.786 39.3701L100.871 39.9473C101.356 41.5571 102.607 42.6439 104.353 43.2827L105.04 41.4044ZM102.789 39.3796C102.51 38.4211 102.602 37.102 103.247 35.3391L101.369 34.652C100.65 36.6156 100.423 38.4052 100.868 39.9379L102.789 39.3796ZM103.247 35.3391L106.633 26.0831L104.755 25.3959L101.369 34.652L103.247 35.3391ZM105.351 26.6786L107.845 27.5911L108.532 25.7129L106.038 24.8004L105.351 26.6786ZM107.249 26.3084L103.984 35.2339L105.862 35.9211L109.128 26.9956L107.249 26.3084ZM103.984 35.2339C103.466 36.6513 103.228 37.9543 103.496 39.0258L105.436 38.5413C105.317 38.0628 105.384 37.2284 105.862 35.9211L103.984 35.2339ZM103.501 39.0469C103.822 40.2234 104.708 40.9934 105.885 41.4239L106.572 39.5456C105.826 39.2725 105.537 38.9083 105.431 38.5202L103.501 39.0469ZM105.885 41.4239C106.811 41.7626 107.75 41.8408 108.678 41.6242L108.224 39.6765C107.711 39.7962 107.169 39.7639 106.572 39.5456L105.885 41.4239ZM108.686 41.6223C109.574 41.4076 110.546 40.9544 111.591 40.3127L110.543 38.6087C109.595 39.1916 108.823 39.5315 108.216 39.6784L108.686 41.6223ZM112.006 39.8043L115.799 29.4363L113.921 28.7492L110.128 39.1171L112.006 39.8043ZM114.516 30.0319L116.981 30.9334L117.668 29.0551L115.204 28.1536L114.516 30.0319ZM116.385 29.6507L111.042 44.256L112.92 44.9431L118.263 30.3378L116.385 29.6507ZM112.325 43.6604L110.281 42.9128L109.594 44.7911L111.638 45.5387L112.325 43.6604ZM110.904 44.108L111.529 41.747L109.596 41.2351L108.971 43.596L110.904 44.108ZM110.906 40.5519L110.816 40.5189L110.129 42.3972L110.219 42.4302L110.906 40.5519ZM109.98 40.5881C109.079 41.0985 108.218 41.4346 107.394 41.6123L107.816 43.5673C108.867 43.3404 109.918 42.922 110.966 42.3281L109.98 40.5881ZM107.394 41.6123C106.662 41.7704 105.885 41.7135 105.04 41.4044L104.353 43.2827C105.512 43.7066 106.674 43.8139 107.816 43.5673L107.394 41.6123ZM116.908 46.402L115.969 46.0585L115.625 46.9976L116.564 47.3411L116.908 46.402ZM122.251 31.7967L122.595 30.8576L121.656 30.514L121.312 31.4531L122.251 31.7967ZM124.715 32.6982L125.655 33.0418L125.998 32.1027L125.059 31.7591L124.715 32.6982ZM119.372 47.3035L119.029 48.2427L119.968 48.5862L120.311 47.6471L119.372 47.3035ZM123.565 28.3928L122.658 28.8139L122.672 28.8441L122.688 28.8733L123.565 28.3928ZM124.433 26.0187L124.042 25.0985L124.027 25.1049L124.012 25.1116L124.433 26.0187ZM126.807 26.8872L125.9 27.3083L125.907 27.3229L125.914 27.3373L126.807 26.8872ZM125.939 29.2613L126.328 30.1823L126.33 30.1814L125.939 29.2613ZM117.847 46.7456L123.19 32.1403L121.312 31.4531L115.969 46.0585L117.847 46.7456ZM121.908 32.7358L124.372 33.6374L125.059 31.7591L122.595 30.8576L121.908 32.7358ZM123.776 32.3547L118.433 46.96L120.311 47.6471L125.655 33.0418L123.776 32.3547ZM119.716 46.3644L117.252 45.4629L116.564 47.3411L119.029 48.2427L119.716 46.3644ZM124.956 28.3141C124.672 28.21 124.528 28.07 124.442 27.9122L122.688 28.8733C123.037 29.511 123.592 29.9447 124.269 30.1924L124.956 28.3141ZM124.472 27.9716C124.413 27.8443 124.383 27.669 124.493 27.3693L122.615 26.6822C122.358 27.3843 122.336 28.1203 122.658 28.8139L124.472 27.9716ZM124.493 27.3693C124.591 27.1019 124.717 26.9895 124.854 26.9257L124.012 25.1116C123.329 25.4289 122.868 25.988 122.615 26.6822L124.493 27.3693ZM124.825 26.9388C124.999 26.8648 125.19 26.8492 125.457 26.9468L126.144 25.0685C125.449 24.8143 124.729 24.806 124.042 25.0985L124.825 26.9388ZM125.457 26.9468C125.724 27.0446 125.836 27.1708 125.9 27.3083L127.714 26.4661C127.397 25.7827 126.838 25.3225 126.144 25.0685L125.457 26.9468ZM125.914 27.3373C125.988 27.4836 126.011 27.6431 125.92 27.8916L127.799 28.5787C128.059 27.8655 128.048 27.1264 127.7 26.437L125.914 27.3373ZM125.92 27.8916C125.817 28.1727 125.687 28.2818 125.547 28.3412L126.33 30.1814C127.052 29.8743 127.535 29.2993 127.799 28.5787L125.92 27.8916ZM125.549 28.3403C125.418 28.3957 125.242 28.4188 124.956 28.3141L124.269 30.1924C124.945 30.4396 125.653 30.468 126.328 30.1823L125.549 28.3403ZM122.771 48.5469L121.832 48.2034L121.488 49.1425L122.427 49.4861L122.771 48.5469ZM123.255 47.2246L122.673 46.4114L122.422 46.5911L122.316 46.8811L123.255 47.2246ZM135.071 38.7696L135.653 39.5829L137.193 38.481L135.414 37.8305L135.071 38.7696ZM128.219 36.2629L127.28 35.9194L126.936 36.8585L127.875 37.2021L128.219 36.2629ZM128.956 34.2495L129.299 33.3103L128.36 32.9668L128.017 33.9059L128.956 34.2495ZM138.933 37.8995L139.872 38.2431L140.216 37.304L139.277 36.9604L138.933 37.8995ZM138.449 39.2218L139.031 40.0351L139.282 39.8554L139.388 39.5654L138.449 39.2218ZM126.633 47.6768L126.051 46.8636L124.511 47.9654L126.289 48.616L126.633 47.6768ZM134.567 50.5793L135.506 50.9229L135.849 49.9838L134.91 49.6402L134.567 50.5793ZM133.83 52.5928L133.487 53.5319L134.426 53.8755L134.769 52.9364L133.83 52.5928ZM123.71 48.8905L124.194 47.5682L122.316 46.8811L121.832 48.2034L123.71 48.8905ZM123.837 48.0379L135.653 39.5829L134.489 37.9564L122.673 46.4114L123.837 48.0379ZM135.414 37.8305L128.563 35.3238L127.875 37.2021L134.727 39.7088L135.414 37.8305ZM129.158 36.6065L129.895 34.593L128.017 33.9059L127.28 35.9194L129.158 36.6065ZM128.612 35.1886L138.589 38.8387L139.277 36.9604L129.299 33.3103L128.612 35.1886ZM137.994 37.556L137.51 38.8783L139.388 39.5654L139.872 38.2431L137.994 37.556ZM137.867 38.4086L126.051 46.8636L127.215 48.4901L139.031 40.0351L137.867 38.4086ZM126.289 48.616L134.223 51.5184L134.91 49.6402L126.977 46.7377L126.289 48.616ZM133.628 50.2357L132.891 52.2492L134.769 52.9364L135.506 50.9229L133.628 50.2357ZM134.174 51.6537L123.115 47.6078L122.427 49.4861L133.487 53.5319L134.174 51.6537Z" fill="#B9B9B9"/>
</g>
<defs>
<filter id="filter0_d_7_3" x="0" y="43" width="107" height="43" filterUnits="userSpaceOnUse" color-interpolation-filters="sRGB">
<feFlood flood-opacity="0" result="BackgroundImageFix"/>
<feColorMatrix in="SourceAlpha" type="matrix" values="0 0 0 0 0 0 0 0 0 0 0 0 0 0 0 0 0 0 127 0" result="hardAlpha"/>
<feOffset dy="4"/>
<feGaussianBlur stdDeviation="2"/>
<feComposite in2="hardAlpha" operator="out"/>
<feColorMatrix type="matrix" values="0 0 0 0 0 0 0 0 0 0 0 0 0 0 0 0 0 0 0.25 0"/>
<feBlend mode="normal" in2="BackgroundImageFix" result="effect1_dropShadow_7_3"/>
<feBlend mode="normal" in="SourceGraphic" in2="effect1_dropShadow_7_3" result="shape"/>
</filter>
<filter id="filter1_d_7_3" x="70.0594" y="5.42316" width="79.2786" height="70.6859" filterUnits="userSpaceOnUse" color-interpolation-filters="sRGB">
<feFlood flood-opacity="0" result="BackgroundImageFix"/>
<feColorMatrix in="SourceAlpha" type="matrix" values="0 0 0 0 0 0 0 0 0 0 0 0 0 0 0 0 0 0 127 0" result="hardAlpha"/>
<feOffset dy="4"/>
<feGaussianBlur stdDeviation="2"/>
<feComposite in2="hardAlpha" operator="out"/>
<feColorMatrix type="matrix" values="0 0 0 0 0 0 0 0 0 0 0 0 0 0 0 0 0 0 0.25 0"/>
<feBlend mode="normal" in2="BackgroundImageFix" result="effect1_dropShadow_7_3"/>
<feBlend mode="normal" in="SourceGraphic" in2="effect1_dropShadow_7_3" result="shape"/>
</filter>
</defs>
</svg>
